<svg width="19" height="19" viewBox="0 0 19 19" fill="none" xmlns="http://www.w3.org/2000/svg">
<path d="M11.7396 1.10395C10.4415 1.01737 9.10442 0.972168 7.73877 0.972168C6.3731 0.972168 5.03602 1.01737 3.73788 1.10395C2.30943 1.19922 1.21665 2.19726 1.15213 3.4125C1.05248 5.28939 1 7.23777 1 9.23605C1 11.2343 1.05248 13.1827 1.15213 15.0596C1.21665 16.2748 2.30944 17.2729 3.73788 17.3682C5.03602 17.4547 6.3731 17.4999 7.73877 17.4999C9.10442 17.4999 10.4415 17.4547 11.7396 17.3682C13.1681 17.2729 14.2609 16.2748 14.3254 15.0596C14.3609 14.3899 14.3905 13.7112 14.4138 13.0243V5.44783C14.3905 4.76094 14.3609 4.08217 14.3254 3.4125C14.2609 2.19726 13.1681 1.19921 11.7396 1.10395Z" fill="#6667AB"/>
<path d="M10.7508 9.23615C10.7508 10.0075 10.6151 11.1489 10.4984 11.9882C10.4167 12.5752 9.83412 12.9504 9.27744 12.7469C7.63081 12.1449 6.0902 11.1906 5.07179 9.71928C4.8704 9.42832 4.87038 9.04397 5.07176 8.753C6.09007 7.28161 7.63074 6.32732 9.27735 5.72537C9.83402 5.52187 10.4166 5.89703 10.4983 6.48407C10.6151 7.32337 10.7508 8.46481 10.7508 9.23615Z" fill="white"/>
<path d="M10.4984 11.9882L9.75553 11.8848L9.75553 11.8848L10.4984 11.9882ZM10.4983 6.48407L11.2411 6.38069L11.2411 6.38069L10.4983 6.48407ZM9.27744 12.7469L9.53496 12.0425L9.53496 12.0425L9.27744 12.7469ZM5.07179 9.71928L5.68848 9.29244L5.68848 9.29244L5.07179 9.71928ZM9.27735 5.72537L9.01984 5.02097L9.27735 5.72537ZM5.07176 8.753L4.45505 8.32619L4.45505 8.32619L5.07176 8.753ZM11.2412 12.0915C11.3577 11.2546 11.5008 10.0657 11.5008 9.23615L10.0008 9.23615C10.0008 9.9492 9.87261 11.0432 9.75553 11.8848L11.2412 12.0915ZM9.75543 6.58745C9.87257 7.42911 10.0008 8.5231 10.0008 9.23615L11.5008 9.23615C11.5008 8.40652 11.3576 7.21763 11.2411 6.38069L9.75543 6.58745ZM9.53496 12.0425C7.97851 11.4735 6.59024 10.5953 5.68848 9.29244L4.4551 10.1461C5.59015 11.786 7.28311 12.8164 9.01992 13.4513L9.53496 12.0425ZM9.01984 5.02097C7.28306 5.65588 5.59001 6.68624 4.45505 8.32619L5.68847 9.17981C6.59013 7.87698 7.97842 6.99877 9.53486 6.42978L9.01984 5.02097ZM11.2411 6.38069C11.098 5.35256 10.0553 4.64244 9.01984 5.02097L9.53486 6.42978C9.58366 6.41194 9.62691 6.41817 9.66674 6.44321C9.70912 6.46986 9.74579 6.51815 9.75543 6.58745L11.2411 6.38069ZM5.68848 9.29244C5.66482 9.25826 5.66482 9.21397 5.68847 9.17981L4.45505 8.32619C4.07594 8.87397 4.07597 9.59838 4.4551 10.1461L5.68848 9.29244ZM9.75553 11.8848C9.74588 11.9541 9.70921 12.0024 9.66683 12.0291C9.62701 12.0541 9.58375 12.0604 9.53496 12.0425L9.01992 13.4513C10.0554 13.8299 11.0982 13.1197 11.2412 12.0915L9.75553 11.8848Z" fill="white"/>
<path d="M3.73788 1.10395L3.78779 1.85229L3.73788 1.10395ZM1.15213 3.4125L1.90107 3.45227L1.15213 3.4125ZM14.3254 3.4125L13.5764 3.45227L14.3254 3.4125ZM11.7396 1.10395L11.7895 0.355608L11.7396 1.10395ZM1.15213 15.0596L0.403185 15.0994L1.15213 15.0596ZM3.73788 17.3682L3.78779 16.6198L3.73788 17.3682ZM14.3254 15.0596L15.0743 15.0994L14.3254 15.0596ZM11.7396 17.3682L11.7895 18.1165L11.7396 17.3682ZM13.6642 5.47326C13.6783 5.88724 14.0252 6.21144 14.4392 6.1974C14.8532 6.18336 15.1774 5.83638 15.1634 5.4224L13.6642 5.47326ZM15.1634 13.0497C15.1774 12.6358 14.8532 12.2888 14.4392 12.2747C14.0252 12.2607 13.6783 12.5849 13.6642 12.9989L15.1634 13.0497ZM7.73877 1.72217C9.08792 1.72217 10.4084 1.76683 11.6897 1.85228L11.7895 0.355608C10.4746 0.267915 9.12092 0.222168 7.73877 0.222168V1.72217ZM3.78779 1.85229C5.06916 1.76683 6.3896 1.72217 7.73877 1.72217V0.222168C6.35661 0.222168 5.00288 0.267915 3.68797 0.35561L3.78779 1.85229ZM1.75 9.23605C1.75 7.25083 1.80214 5.31571 1.90107 3.45227L0.403185 3.37274C0.302819 5.26307 0.25 7.22471 0.25 9.23605H1.75ZM1.90108 15.0198C1.80214 13.1564 1.75 11.2213 1.75 9.23605H0.25C0.25 11.2474 0.302819 13.209 0.403185 15.0994L1.90108 15.0198ZM7.73877 16.7499C6.3896 16.7499 5.06916 16.7053 3.78779 16.6198L3.68797 18.1165C5.00288 18.2042 6.35661 18.2499 7.73877 18.2499V16.7499ZM11.6897 16.6198C10.4084 16.7053 9.08793 16.7499 7.73877 16.7499V18.2499C9.12092 18.2499 10.4746 18.2042 11.7895 18.1165L11.6897 16.6198ZM3.68797 0.35561C1.96342 0.470626 0.491937 1.70114 0.403185 3.37274L1.90107 3.45227C1.94137 2.69338 2.65545 1.9278 3.78779 1.85229L3.68797 0.35561ZM15.0743 3.37274C14.9856 1.70114 13.5141 0.470624 11.7895 0.355608L11.6897 1.85228C12.8221 1.9278 13.5361 2.69338 13.5764 3.45227L15.0743 3.37274ZM0.403185 15.0994C0.491937 16.771 1.96342 18.0015 3.68797 18.1165L3.78779 16.6198C2.65545 16.5443 1.94137 15.7787 1.90108 15.0198L0.403185 15.0994ZM13.5764 15.0198C13.5361 15.7787 12.8221 16.5443 11.6897 16.6198L11.7895 18.1165C13.5141 18.0015 14.9856 16.771 15.0743 15.0994L13.5764 15.0198ZM13.5764 3.45227C13.6117 4.11711 13.6411 4.79111 13.6642 5.47326L15.1634 5.4224C15.1399 4.73078 15.1101 4.04723 15.0743 3.37274L13.5764 3.45227ZM13.6642 12.9989C13.6411 13.681 13.6117 14.355 13.5764 15.0198L15.0743 15.0994C15.1101 14.4249 15.1399 13.7414 15.1634 13.0497L13.6642 12.9989Z" fill="white"/>
<path d="M18 9.23608L10.7509 9.23608" stroke="white" stroke-width="1.5" stroke-linecap="round" stroke-linejoin="round"/>
</svg>
