<svg width="24" height="24" viewBox="0 0 24 24" fill="none" xmlns="http://www.w3.org/2000/svg">
<path d="M5.92535 4.12915C4.83218 5.27698 4.06563 6.70366 3.68851 8.24996M18.0157 4.12915C19.1089 5.27698 19.8754 6.70366 20.2525 8.24996" stroke="#FBFBFC" stroke-width="1.5" stroke-linecap="round" stroke-linejoin="round"/>
<path d="M8.4802 6.78084C9.41371 5.80066 10.6798 5.25 12 5.25C13.3202 5.25 14.5863 5.80066 15.5198 6.78084C16.4533 7.76103 16.9777 9.09044 16.9777 10.4766C16.9777 11.8703 17.2513 12.9163 17.6321 13.6949C17.8725 14.1865 18.422 14.3934 18.9157 14.6296C20.1521 15.2213 20.0196 16.986 19.1859 17.6333C19.1859 17.6333 17.9574 18.75 12 18.75C6.0426 18.75 4.81412 17.6333 4.81412 17.6333C3.98042 16.986 3.84789 15.2213 5.08431 14.6296C5.57794 14.3934 6.12747 14.1865 6.36789 13.6949C6.74866 12.9163 7.02226 11.8703 7.02226 10.4766C7.02226 9.09044 7.5467 7.76103 8.4802 6.78084Z" fill="#6667AB"/>
<path d="M4.81412 17.6333L5.3186 17.0783C5.30425 17.0653 5.28939 17.0528 5.27406 17.0409L4.81412 17.6333ZM6.36789 13.6949L5.69414 13.3654H5.69414L6.36789 13.6949ZM5.08431 14.6296L5.40804 15.3061H5.40804L5.08431 14.6296ZM15.5198 6.78084L16.0629 6.2636V6.2636L15.5198 6.78084ZM19.1859 17.6333L18.7259 17.0409C18.7106 17.0528 18.6957 17.0653 18.6814 17.0783L19.1859 17.6333ZM17.6321 13.6949L16.9584 14.0244L16.9584 14.0244L17.6321 13.6949ZM18.9157 14.6296L18.5919 15.3061L18.9157 14.6296ZM12 4.5C10.4688 4.5 9.00812 5.13903 7.9371 6.2636L9.02331 7.29808C9.8193 6.46229 10.8909 6 12 6V4.5ZM7.9371 6.2636C6.86726 7.38693 6.27226 8.90302 6.27226 10.4766H7.77226C7.77226 9.27787 8.22613 8.13512 9.02331 7.29808L7.9371 6.2636ZM4.81412 17.6333C4.30964 18.1883 4.3103 18.1889 4.31096 18.1895C4.31119 18.1897 4.31186 18.1903 4.31231 18.1907C4.31323 18.1915 4.31416 18.1923 4.31511 18.1932C4.31701 18.1949 4.31899 18.1966 4.32105 18.1984C4.32517 18.2021 4.32962 18.2059 4.3344 18.2099C4.34396 18.218 4.35485 18.2269 4.36717 18.2365C4.39181 18.2558 4.42213 18.2781 4.45887 18.3029C4.53236 18.3525 4.63147 18.4121 4.76229 18.4779C5.02358 18.6092 5.41288 18.7659 5.98062 18.9165C7.11344 19.2172 8.9784 19.5 12 19.5V18C9.06418 18 7.33621 17.7244 6.36544 17.4667C5.88139 17.3383 5.59124 17.2157 5.43602 17.1377C5.35858 17.0988 5.31518 17.0711 5.29821 17.0597C5.28973 17.054 5.28784 17.0523 5.29157 17.0552C5.29344 17.0566 5.29671 17.0593 5.30125 17.0631C5.30353 17.065 5.30612 17.0672 5.30902 17.0698C5.31047 17.071 5.31199 17.0724 5.31359 17.0738C5.31439 17.0745 5.31521 17.0753 5.31604 17.076C5.31646 17.0764 5.3171 17.077 5.31731 17.0771C5.31795 17.0777 5.3186 17.0783 4.81412 17.6333ZM6.27226 10.4766C6.27226 11.7699 6.01898 12.7012 5.69414 13.3654L7.04163 14.0244C7.47834 13.1315 7.77226 11.9706 7.77226 10.4766H6.27226ZM4.76057 13.9531C3.83259 14.3971 3.44657 15.2805 3.42323 16.089C3.40072 16.8688 3.70841 17.7243 4.35418 18.2257L5.27406 17.0409C5.08613 16.895 4.9107 16.5445 4.92261 16.1322C4.93368 15.7486 5.09961 15.4537 5.40804 15.3061L4.76057 13.9531ZM12 6C13.1091 6 14.1807 6.46229 14.9767 7.29808L16.0629 6.2636C14.9919 5.13903 13.5312 4.5 12 4.5V6ZM14.9767 7.29808C15.7739 8.13512 16.2277 9.27787 16.2277 10.4766H17.7277C17.7277 8.90301 17.1327 7.38693 16.0629 6.2636L14.9767 7.29808ZM19.1859 17.6333C18.6814 17.0783 18.682 17.0777 18.6827 17.0771C18.6829 17.077 18.6835 17.0764 18.6839 17.076C18.6848 17.0753 18.6856 17.0745 18.6864 17.0738C18.688 17.0724 18.6895 17.071 18.691 17.0698C18.6939 17.0672 18.6965 17.065 18.6987 17.0631C18.7033 17.0593 18.7065 17.0566 18.7084 17.0552C18.7122 17.0523 18.7103 17.054 18.7018 17.0597C18.6848 17.0711 18.6414 17.0988 18.564 17.1377C18.4088 17.2157 18.1186 17.3383 17.6345 17.4667C16.6638 17.7244 14.9358 18 12 18V19.5C15.0216 19.5 16.8865 19.2172 18.0194 18.9165C18.5871 18.7659 18.9764 18.6092 19.2377 18.4779C19.3685 18.4121 19.4676 18.3525 19.5411 18.3029C19.5779 18.2781 19.6082 18.2558 19.6328 18.2365C19.6451 18.2269 19.656 18.218 19.6656 18.2099C19.6704 18.2059 19.6748 18.2021 19.6789 18.1984C19.681 18.1966 19.683 18.1949 19.6849 18.1932C19.6858 18.1923 19.6868 18.1915 19.6877 18.1907C19.6881 18.1903 19.6888 18.1897 19.689 18.1895C19.6897 18.1889 19.6903 18.1883 19.1859 17.6333ZM16.2277 10.4766C16.2277 11.9706 16.5216 13.1315 16.9584 14.0244L18.3058 13.3654C17.981 12.7012 17.7277 11.7699 17.7277 10.4766H16.2277ZM18.5919 15.3061C18.9004 15.4537 19.0663 15.7486 19.0774 16.1322C19.0893 16.5445 18.9139 16.895 18.7259 17.0409L19.6458 18.2257C20.2916 17.7243 20.5993 16.8688 20.5768 16.089C20.5534 15.2805 20.1674 14.3971 19.2394 13.9531L18.5919 15.3061ZM16.9584 14.0244C17.1633 14.4434 17.4877 14.7111 17.7825 14.8947C18.0585 15.0666 18.3879 15.2085 18.5919 15.3061L19.2394 13.9531C18.9498 13.8145 18.7577 13.7349 18.5754 13.6214C18.4119 13.5196 18.3414 13.438 18.3058 13.3654L16.9584 14.0244ZM5.69414 13.3654C5.65864 13.438 5.58807 13.5196 5.42459 13.6214C5.24234 13.7349 5.05014 13.8145 4.76057 13.9531L5.40804 15.3061C5.61211 15.2085 5.94149 15.0666 6.21752 14.8947C6.51232 14.7111 6.83672 14.4434 7.04163 14.0244L5.69414 13.3654Z" fill="#FBFBFC"/>
<path d="M10.9045 21.3458C10.7161 20.977 10.2643 20.8307 9.89547 21.0191C9.52659 21.2075 9.3803 21.6593 9.56872 22.0282L10.9045 21.3458ZM14.6839 22.0282C14.8723 21.6593 14.726 21.2075 14.3571 21.0191C13.9882 20.8307 13.5364 20.977 13.348 21.3458L14.6839 22.0282ZM12.1263 22.1251C11.6149 22.1251 11.1492 21.8247 10.9045 21.3458L9.56872 22.0282C10.0465 22.9636 11.0022 23.6251 12.1263 23.6251V22.1251ZM13.348 21.3458C13.1034 21.8247 12.6377 22.1251 12.1263 22.1251V23.6251C13.2503 23.6251 14.206 22.9636 14.6839 22.0282L13.348 21.3458Z" fill="#FBFBFC"/>
</svg>
