<svg width="23" height="22" viewBox="0 0 23 22" fill="none" xmlns="http://www.w3.org/2000/svg">
<path d="M1.4791 18.3583C1.5856 19.3183 2.34888 20.081 3.3086 20.1902C5.30757 20.4176 7.39082 20.6918 9.53159 20.6918C11.6724 20.6918 13.7556 20.4176 15.7546 20.1902C16.7143 20.081 17.4776 19.3183 17.5841 18.3583C17.8049 16.3672 18.0632 14.2924 18.0632 12.1602C18.0632 10.0281 17.8049 7.95325 17.5841 5.96221C17.4776 5.00218 16.7143 4.23954 15.7546 4.13034C13.7556 3.90288 11.6724 3.62866 9.53159 3.62866C7.39082 3.62866 5.30757 3.90288 3.3086 4.13034C2.34888 4.23954 1.5856 5.00218 1.4791 5.96221C1.25823 7.95325 1 10.0281 1 12.1602C1 14.2924 1.25823 16.3672 1.4791 18.3583Z" fill="#6667AB"/>
<path d="M8.31042 4.40732C8.72421 4.38868 9.04455 4.03813 9.02591 3.62433C9.00727 3.21054 8.65672 2.8902 8.24292 2.90884L8.31042 4.40732ZM18.7729 13.6994C18.7936 13.2857 18.4751 12.9335 18.0614 12.9128C17.6477 12.892 17.2955 13.2105 17.2748 13.6242L18.7729 13.6994ZM3.30854 4.13045L3.22375 3.38525L3.30854 4.13045ZM15.7546 20.1903L15.8394 20.9354L15.7546 20.1903ZM17.5841 18.3584L18.3295 18.4411L17.5841 18.3584ZM3.3086 20.1903L3.39339 19.4451L3.3086 20.1903ZM9.53159 19.9419C7.44394 19.9419 5.4122 19.6748 3.39339 19.4451L3.22381 20.9354C5.20294 21.1606 7.33771 21.4419 9.53159 21.4419V19.9419ZM15.6698 19.4451C13.651 19.6748 11.6192 19.9419 9.53159 19.9419V21.4419C11.7255 21.4419 13.8602 21.1606 15.8394 20.9354L15.6698 19.4451ZM0.733674 5.87961C0.514603 7.85443 0.25 9.97716 0.25 12.1603H1.75C1.75 10.0793 2.00186 8.05226 2.22453 6.045L0.733674 5.87961ZM0.25 12.1603C0.25 14.3435 0.514603 16.4663 0.733675 18.4411L2.22453 18.2757C2.00186 16.2684 1.75 14.2414 1.75 12.1603H0.25ZM3.39333 4.87564C5.01463 4.69115 6.64179 4.48248 8.31042 4.40732L8.24292 2.90884C6.50914 2.98694 4.81495 3.2042 3.22375 3.38525L3.39333 4.87564ZM18.3295 18.4411C18.4969 16.9319 18.6909 15.3343 18.7729 13.6994L17.2748 13.6242C17.1956 15.2024 17.0086 16.7438 16.8386 18.2758L18.3295 18.4411ZM2.22453 6.045C2.29228 5.43427 2.78011 4.94541 3.39333 4.87564L3.22375 3.38525C1.91753 3.53388 0.87892 4.57029 0.733674 5.87961L2.22453 6.045ZM15.8394 20.9354C17.1455 20.7868 18.1842 19.7505 18.3295 18.4411L16.8386 18.2758C16.7709 18.8864 16.283 19.3753 15.6698 19.4451L15.8394 20.9354ZM3.39339 19.4451C2.78015 19.3753 2.29228 18.8864 2.22453 18.2757L0.733675 18.4411C0.878924 19.7504 1.91761 20.7868 3.22381 20.9354L3.39339 19.4451Z" fill="white"/>
<path d="M15.7016 1.9154L9.90315 8.49473L9.10878 12.2309C8.98096 12.832 9.60761 13.4009 10.1944 13.2164L13.9125 12.0475L19.9016 5.74553C20.8964 4.69884 20.7228 2.94818 19.5188 1.88318C18.3429 0.843118 16.6339 0.857544 15.7016 1.9154Z" fill="#6667AB"/>
<path d="M9.90315 8.49473L9.31211 7.97193C9.23856 8.05539 9.18787 8.15699 9.16416 8.26852L9.90315 8.49473ZM15.7016 1.9154L15.1106 1.39259L15.7016 1.9154ZM19.9016 5.74553L19.3267 5.20509L19.3267 5.20509L19.9016 5.74553ZM13.9125 12.0475L14.2085 12.7606C14.3162 12.7268 14.4116 12.6677 14.4874 12.588L13.9125 12.0475ZM10.1944 13.2164L9.89839 12.5033H9.89839L10.1944 13.2164ZM9.10878 12.2309L8.36979 12.0047L9.10878 12.2309ZM19.5188 1.88318L19.9874 1.35143L19.9874 1.35143L19.5188 1.88318ZM10.4942 9.01754L16.2926 2.4382L15.1106 1.39259L9.31211 7.97193L10.4942 9.01754ZM19.3267 5.20509L13.3376 11.5071L14.4874 12.588L20.4765 6.28597L19.3267 5.20509ZM13.6164 11.3344L9.89839 12.5033L10.4905 13.9295L14.2085 12.7606L13.6164 11.3344ZM9.84777 12.4571L10.6421 8.72094L9.16416 8.26852L8.36979 12.0047L9.84777 12.4571ZM9.89839 12.5033C9.89044 12.5058 9.88589 12.506 9.88429 12.506C9.88252 12.5061 9.88115 12.5059 9.87965 12.5055C9.87613 12.5045 9.86882 12.5015 9.86065 12.4941C9.85249 12.4867 9.84871 12.4796 9.84742 12.4762C9.84687 12.4747 9.84654 12.4733 9.84639 12.4715C9.84625 12.4698 9.84603 12.4653 9.84777 12.4571L8.36979 12.0047C8.1202 13.1785 9.34391 14.2899 10.4905 13.9295L9.89839 12.5033ZM20.4765 6.28597C21.7474 4.94872 21.5257 2.71208 19.9874 1.35143L19.0501 2.41493C19.92 3.18429 20.0453 4.44896 19.3267 5.20509L20.4765 6.28597ZM16.2926 2.4382C16.9661 1.67401 18.2007 1.66359 19.0501 2.41493L19.9874 1.35143C18.4851 0.0226467 16.3017 0.0410763 15.1106 1.39259L16.2926 2.4382Z" fill="white"/>
</svg>
